<svg version="1.1" id="Layer_1" xmlns="http://www.w3.org/2000/svg" xmlns:xlink="http://www.w3.org/1999/xlink" x="0px" y="0px"
	 width="100%" viewBox="0 0 576 576" enable-background="new 0 0 576 576" xml:space="preserve">
<path fill="#000000" opacity="1.000000" stroke="none" 
	d="
M320.000000,577.000000 
	C213.333328,577.000000 107.166664,577.000000 1.000000,577.000000 
	C1.000000,385.000000 1.000000,193.000000 1.000000,1.000000 
	C193.000000,1.000000 385.000000,1.000000 577.000000,1.000000 
	C577.000000,193.000000 577.000000,385.000000 577.000000,577.000000 
	C491.500000,577.000000 406.000000,577.000000 320.000000,577.000000 
M73.101151,319.806641 
	C73.122597,328.903839 73.144043,338.001068 73.055565,348.017517 
	C73.036903,383.951385 73.320297,419.889160 72.858826,455.817352 
	C72.659393,471.345001 77.963501,483.881927 89.473198,493.895599 
	C96.970978,500.418854 105.544914,504.727997 116.756607,504.884247 
	C119.421799,504.922119 122.086975,504.992554 124.752174,504.993164 
	C237.226913,505.019135 349.701691,505.069458 462.176331,504.991333 
	C469.769196,504.986053 476.881104,502.604523 483.675690,497.690002 
	C498.064941,487.292145 505.543701,473.730499 505.147461,455.461884 
	C504.573090,428.981171 505.021820,402.478638 504.994263,375.985474 
	C504.968231,350.994446 504.890594,326.003479 504.938660,300.080322 
	C504.918457,284.021057 504.898254,267.961792 504.981506,250.982529 
	C504.987671,207.836487 504.863464,164.689758 505.091095,121.544884 
	C505.148560,110.653854 502.748413,100.869461 496.042969,92.227325 
	C486.945740,80.502609 475.474670,73.037407 460.211609,73.029945 
	C347.432037,72.974838 234.652359,73.067291 121.873047,72.894165 
	C110.774467,72.877129 100.794693,75.289154 92.030388,82.007866 
	C81.471291,90.102478 73.539894,100.589279 73.246658,114.002922 
	C72.533295,146.635712 73.079887,179.296036 73.003853,212.882980 
	C73.002556,236.548904 72.972809,260.214905 73.012077,283.880737 
	C73.031418,295.541199 73.178352,307.201447 73.101151,319.806641 
z"/>
<path fill="#3E2723" opacity="1.000000" stroke="none" 
	d="
M483.044128,497.907043 
	C476.881104,502.604523 469.769196,504.986053 462.176331,504.991333 
	C349.701691,505.069458 237.226913,505.019135 124.752174,504.993164 
	C122.086975,504.992554 119.421799,504.922119 116.371658,504.483490 
	C118.290123,500.426453 120.583282,496.763672 122.898766,493.115082 
	C131.857651,478.998260 139.838333,464.350586 144.029083,448.076721 
	C148.383484,431.167328 157.149704,416.907043 168.457153,403.947205 
	C179.506058,391.283752 190.884415,378.886078 201.462357,365.839996 
	C210.523849,354.664185 216.441284,341.864868 216.882507,326.597656 
	C215.408096,307.778290 213.896881,289.430817 212.386536,270.608826 
	C212.244431,266.991272 211.920715,263.844269 211.990646,260.706024 
	C212.255890,248.804352 212.648560,236.905502 213.117554,224.633240 
	C213.822845,221.516312 214.508377,218.789062 214.968353,216.024292 
	C217.628113,200.037704 221.242538,184.345505 229.109573,169.966934 
	C237.555450,154.530396 249.303680,142.670822 266.276398,136.925934 
	C294.611145,127.335258 318.578949,135.995087 339.737976,155.248611 
	C352.078308,166.477631 359.985931,180.662598 366.032532,196.403122 
	C367.404510,201.754837 369.419861,206.662277 369.917480,211.719055 
	C371.329956,226.071259 372.122314,240.484482 373.127655,255.349365 
	C373.433777,268.208191 373.551453,280.603027 374.210205,292.969055 
	C374.497284,298.358337 375.894165,303.688507 376.788727,309.469910 
	C378.093048,315.040131 379.013092,320.320557 380.767090,325.307648 
	C387.093628,343.295776 399.755402,356.561554 414.522949,367.691803 
	C430.483765,379.721436 442.203400,394.872162 451.348297,412.371613 
	C465.548889,439.545654 474.988129,468.465698 483.044128,497.907043 
M324.041718,321.155701 
	C319.907684,308.117096 315.399933,295.135651 318.275787,280.456268 
	C320.140503,275.142181 322.735382,269.961975 323.738464,264.489929 
	C327.315887,244.974411 327.025116,225.300262 323.252716,205.892487 
	C317.348328,175.516541 298.177612,160.456055 267.264130,160.915466 
	C244.797119,161.249374 230.547119,174.084442 229.086563,196.624680 
	C228.217651,210.034546 228.606888,223.563919 229.130661,237.012314 
	C229.465408,245.606827 230.219940,254.366257 232.296494,262.674286 
	C236.734024,280.428284 245.045334,295.597107 263.925201,302.883148 
	C264.275513,309.208435 264.625824,315.533722 264.581085,322.457794 
	C262.661316,328.998901 258.648926,333.862701 252.890594,337.457916 
	C239.354599,345.909119 228.740448,357.346405 220.099319,370.595978 
	C209.475708,386.885406 213.869995,402.416046 231.880859,409.614868 
	C250.690857,417.133087 270.335052,421.649872 290.825409,420.932220 
	C308.330261,420.319214 317.692200,413.106689 323.078949,396.353302 
	C329.063110,377.741943 329.204712,358.636322 327.456055,339.457947 
	C326.918060,333.557922 325.210480,327.764557 324.041718,321.155701 
z"/>
<path fill="#AFB076" opacity="1.000000" stroke="none" 
	d="
M365.982880,196.027039 
	C359.985931,180.662598 352.078308,166.477631 339.737976,155.248611 
	C318.578949,135.995087 294.611145,127.335258 266.276398,136.925934 
	C249.303680,142.670822 237.555450,154.530396 229.109573,169.966934 
	C221.242538,184.345505 217.628113,200.037704 214.968353,216.024292 
	C214.508377,218.789062 213.822845,221.516312 212.692429,224.681458 
	C210.175674,224.810257 208.161072,224.698364 206.247421,224.199371 
	C182.437271,217.990891 158.659088,211.659225 134.836487,205.499313 
	C118.841110,201.363342 102.892868,201.609192 87.141716,206.830551 
	C82.421059,208.395432 77.790718,210.232758 73.118996,211.945267 
	C73.079887,179.296036 72.533295,146.635712 73.246658,114.002922 
	C73.539894,100.589279 81.471291,90.102478 92.030388,82.007866 
	C100.794693,75.289154 110.774467,72.877129 121.873047,72.894165 
	C234.652359,73.067291 347.432037,72.974838 460.211609,73.029945 
	C475.474670,73.037407 486.945740,80.502609 496.042969,92.227325 
	C502.748413,100.869461 505.148560,110.653854 505.091095,121.544884 
	C504.863464,164.689758 504.987671,207.836487 504.470184,251.475189 
	C488.066895,251.847015 472.174896,251.726166 456.099915,251.331787 
	C446.038849,236.211899 435.095093,222.264496 421.735748,210.335556 
	C405.923401,196.216202 388.448334,188.493622 366.970795,195.915039 
	C366.665100,196.020676 366.313202,195.992661 365.982880,196.027039 
z"/>
<path fill="#8A472A" opacity="1.000000" stroke="none" 
	d="
M483.359924,497.798523 
	C474.988129,468.465698 465.548889,439.545654 451.348297,412.371613 
	C442.203400,394.872162 430.483765,379.721436 414.522949,367.691803 
	C399.755402,356.561554 387.093628,343.295776 380.767090,325.307648 
	C379.013092,320.320557 378.093048,315.040131 377.227722,309.438934 
	C381.283417,308.458618 384.902679,307.939819 388.519989,307.407654 
	C411.707367,303.996552 434.842712,300.298096 458.434509,300.923431 
	C473.891479,301.333160 489.367920,301.008301 504.835663,301.012482 
	C504.890594,326.003479 504.968231,350.994446 504.994263,375.985474 
	C505.021820,402.478638 504.573090,428.981171 505.147461,455.461884 
	C505.543701,473.730499 498.064941,487.292145 483.359924,497.798523 
z"/>
<path fill="#8A472A" opacity="1.000000" stroke="none" 
	d="
M216.845718,327.069550 
	C216.441284,341.864868 210.523849,354.664185 201.462357,365.839996 
	C190.884415,378.886078 179.506058,391.283752 168.457153,403.947205 
	C157.149704,416.907043 148.383484,431.167328 144.029083,448.076721 
	C139.838333,464.350586 131.857651,478.998260 122.898766,493.115082 
	C120.583282,496.763672 118.290123,500.426453 115.894920,504.415253 
	C105.544914,504.727997 96.970978,500.418854 89.473198,493.895599 
	C77.963501,483.881927 72.659393,471.345001 72.858826,455.817352 
	C73.320297,419.889160 73.036903,383.951385 73.393478,347.722656 
	C77.283264,349.595856 80.758698,351.902771 84.400803,353.906830 
	C97.261955,360.983582 110.581711,363.381683 124.688171,357.686676 
	C135.801331,353.200165 146.992966,348.907928 158.105637,344.420227 
	C177.129166,336.737854 196.374756,329.837860 216.845718,327.069550 
z"/>
<path fill="#737953" opacity="1.000000" stroke="none" 
	d="
M73.061424,212.414124 
	C77.790718,210.232758 82.421059,208.395432 87.141716,206.830551 
	C102.892868,201.609192 118.841110,201.363342 134.836487,205.499313 
	C158.659088,211.659225 182.437271,217.990891 206.247421,224.199371 
	C208.161072,224.698364 210.175674,224.810257 212.568481,225.053818 
	C212.648560,236.905502 212.255890,248.804352 211.990646,260.706024 
	C211.920715,263.844269 212.244431,266.991272 211.990265,270.701385 
	C185.209930,277.237854 161.411819,288.538849 139.536560,304.532288 
	C132.017532,310.029572 122.934586,313.676025 114.144585,317.079376 
	C100.874886,322.217133 87.041130,321.547180 73.267548,318.861786 
	C73.178352,307.201447 73.031418,295.541199 73.012077,283.880737 
	C72.972809,260.214905 73.002556,236.548904 73.061424,212.414124 
z"/>
<path fill="#485343" opacity="1.000000" stroke="none" 
	d="
M73.184349,319.334229 
	C87.041130,321.547180 100.874886,322.217133 114.144585,317.079376 
	C122.934586,313.676025 132.017532,310.029572 139.536560,304.532288 
	C161.411819,288.538849 185.209930,277.237854 211.989410,271.175964 
	C213.896881,289.430817 215.408096,307.778290 216.882507,326.597656 
	C196.374756,329.837860 177.129166,336.737854 158.105637,344.420227 
	C146.992966,348.907928 135.801331,353.200165 124.688171,357.686676 
	C110.581711,363.381683 97.261955,360.983582 84.400803,353.906830 
	C80.758698,351.902771 77.283264,349.595856 73.448441,347.263062 
	C73.144043,338.001068 73.122597,328.903839 73.184349,319.334229 
z"/>
<path fill="#485343" opacity="1.000000" stroke="none" 
	d="
M504.887146,300.546387 
	C489.367920,301.008301 473.891479,301.333160 458.434509,300.923431 
	C434.842712,300.298096 411.707367,303.996552 388.519989,307.407654 
	C384.902679,307.939819 381.283417,308.458618 377.226044,309.014526 
	C375.894165,303.688507 374.497284,298.358337 374.210205,292.969055 
	C373.551453,280.603027 373.433777,268.208191 373.551483,255.358612 
	C397.273285,253.912643 420.539734,252.924515 443.807220,251.961487 
	C447.963593,251.789459 452.124237,251.721390 456.282928,251.605331 
	C472.174896,251.726166 488.066895,251.847015 504.418457,251.935211 
	C504.898254,267.961792 504.918457,284.021057 504.887146,300.546387 
z"/>
<path fill="#FEA626" opacity="1.000000" stroke="none" 
	d="
M263.903778,302.008911 
	C245.045334,295.597107 236.734024,280.428284 232.296494,262.674286 
	C230.219940,254.366257 229.465408,245.606827 229.130661,237.012314 
	C228.606888,223.563919 228.217651,210.034546 229.086563,196.624680 
	C230.547119,174.084442 244.797119,161.249374 267.264130,160.915466 
	C298.177612,160.456055 317.348328,175.516541 323.252716,205.892487 
	C327.025116,225.300262 327.315887,244.974411 323.738464,264.489929 
	C322.735382,269.961975 320.140503,275.142181 317.871277,281.001282 
	C312.100494,288.553192 305.324280,293.635620 297.067230,296.824707 
	C286.372589,300.955170 275.209198,301.889221 263.903778,302.008911 
M272.315125,228.401779 
	C277.327393,215.515518 287.777985,212.294724 299.216003,220.083725 
	C300.446106,220.921387 301.889801,222.329880 303.067932,222.178406 
	C305.658936,221.845306 308.253479,220.905624 310.611115,219.738083 
	C311.425171,219.334915 312.023743,216.557831 311.904816,216.498444 
	C309.935120,215.514420 307.870056,214.675491 305.755646,214.038803 
	C303.239349,213.281097 300.681274,212.603226 298.096222,212.144836 
	C291.939819,211.053131 285.745544,209.236877 279.587433,209.317001 
	C270.756287,209.431900 265.467529,218.105865 268.418121,226.462204 
	C268.796722,227.534378 270.664764,228.080612 272.315125,228.401779 
M251.992783,213.125931 
	C246.117752,210.574005 240.858658,212.242706 236.165268,215.879242 
	C234.912399,216.850006 234.584000,219.013931 234.170792,219.900986 
	C238.420120,218.581039 242.461594,216.126801 246.237961,216.483002 
	C250.174072,216.854294 253.854538,219.935776 257.646790,221.832306 
	C257.920532,221.737686 258.194305,221.643066 258.468079,221.548462 
	C256.529022,218.876480 254.589951,216.204514 251.992783,213.125931 
M258.910706,271.867188 
	C257.255219,272.078857 255.599762,272.290527 253.944290,272.502197 
	C259.909760,276.424377 275.575256,275.820923 280.362457,272.392487 
	C279.108887,272.256470 278.146790,272.066040 277.183838,272.061676 
	C271.325439,272.035217 265.466888,272.051086 258.910706,271.867188 
M266.838074,258.208618 
	C263.661804,259.136200 260.485535,260.063782 256.867554,261.120361 
	C262.947021,264.377014 270.787567,263.488281 274.707214,259.048218 
	C272.121094,258.703217 269.883881,258.404785 266.838074,258.208618 
M254.518677,258.496521 
	C254.518677,258.496521 254.487625,258.506531 254.518677,258.496521 
z"/>
<path fill="#FEA626" opacity="1.000000" stroke="none" 
	d="
M324.038422,321.922363 
	C325.210480,327.764557 326.918060,333.557922 327.456055,339.457947 
	C329.204712,358.636322 329.063110,377.741943 323.078949,396.353302 
	C317.692200,413.106689 308.330261,420.319214 290.825409,420.932220 
	C270.335052,421.649872 250.690857,417.133087 231.880859,409.614868 
	C213.869995,402.416046 209.475708,386.885406 220.099319,370.595978 
	C228.740448,357.346405 239.354599,345.909119 252.890594,337.457916 
	C258.648926,333.862701 262.661316,328.998901 264.945404,322.501862 
	C265.704773,323.979736 266.093140,325.415405 266.495911,326.847046 
	C269.146362,336.268158 273.029846,339.082428 282.709717,338.047394 
	C286.630402,337.628143 290.733612,337.116394 294.307495,335.597015 
	C304.342072,331.331116 314.144470,326.519043 324.038422,321.922363 
z"/>
<path fill="#737953" opacity="1.000000" stroke="none" 
	d="
M456.099915,251.331787 
	C452.124237,251.721390 447.963593,251.789459 443.807220,251.961487 
	C420.539734,252.924515 397.273285,253.912643 373.582672,254.882950 
	C372.122314,240.484482 371.329956,226.071259 369.917480,211.719055 
	C369.419861,206.662277 367.404510,201.754837 366.032532,196.403122 
	C366.313202,195.992661 366.665100,196.020676 366.970795,195.915039 
	C388.448334,188.493622 405.923401,196.216202 421.735748,210.335556 
	C435.095093,222.264496 446.038849,236.211899 456.099915,251.331787 
z"/>
<path fill="#FA8C00" opacity="1.000000" stroke="none" 
	d="
M324.040070,321.539032 
	C314.144470,326.519043 304.342072,331.331116 294.307495,335.597015 
	C290.733612,337.116394 286.630402,337.628143 282.709717,338.047394 
	C273.029846,339.082428 269.146362,336.268158 266.495911,326.847046 
	C266.093140,325.415405 265.704773,323.979736 265.142914,322.202454 
	C264.625824,315.533722 264.275513,309.208435 263.914490,302.446045 
	C275.209198,301.889221 286.372589,300.955170 297.067230,296.824707 
	C305.324280,293.635620 312.100494,288.553192 317.687927,281.313385 
	C315.399933,295.135651 319.907684,308.117096 324.040070,321.539032 
z"/>
<path fill="#FB8D01" opacity="1.000000" stroke="none" 
	d="
M272.078979,228.636139 
	C270.664764,228.080612 268.796722,227.534378 268.418121,226.462204 
	C265.467529,218.105865 270.756287,209.431900 279.587433,209.317001 
	C285.745544,209.236877 291.939819,211.053131 298.096222,212.144836 
	C300.681274,212.603226 303.239349,213.281097 305.755646,214.038803 
	C307.870056,214.675491 309.935120,215.514420 311.904816,216.498444 
	C312.023743,216.557831 311.425171,219.334915 310.611115,219.738083 
	C308.253479,220.905624 305.658936,221.845306 303.067932,222.178406 
	C301.889801,222.329880 300.446106,220.921387 299.216003,220.083725 
	C287.777985,212.294724 277.327393,215.515518 272.078979,228.636139 
z"/>
<path fill="#FB8D02" opacity="1.000000" stroke="none" 
	d="
M252.321838,213.329224 
	C254.589951,216.204514 256.529022,218.876480 258.468079,221.548462 
	C258.194305,221.643066 257.920532,221.737686 257.646790,221.832306 
	C253.854538,219.935776 250.174072,216.854294 246.237961,216.483002 
	C242.461594,216.126801 238.420120,218.581039 234.170792,219.900986 
	C234.584000,219.013931 234.912399,216.850006 236.165268,215.879242 
	C240.858658,212.242706 246.117752,210.574005 252.321838,213.329224 
z"/>
<path fill="#FB8F04" opacity="1.000000" stroke="none" 
	d="
M259.259521,271.960022 
	C265.466888,272.051086 271.325439,272.035217 277.183838,272.061676 
	C278.146790,272.066040 279.108887,272.256470 280.362457,272.392487 
	C275.575256,275.820923 259.909760,276.424377 253.944290,272.502197 
	C255.599762,272.290527 257.255219,272.078857 259.259521,271.960022 
z"/>
<path fill="#FB8E03" opacity="1.000000" stroke="none" 
	d="
M267.242371,258.157471 
	C269.883881,258.404785 272.121094,258.703217 274.707214,259.048218 
	C270.787567,263.488281 262.947021,264.377014 256.867554,261.120361 
	C260.485535,260.063782 263.661804,259.136200 267.242371,258.157471 
z"/>
<path fill="#FB8E03" opacity="1.000000" stroke="none" 
	d="
M254.503143,258.501526 
	C254.487625,258.506531 254.518677,258.496521 254.503143,258.501526 
z"/>
</svg>